<svg width="49" height="21" viewBox="0 0 49 21" fill="none" xmlns="http://www.w3.org/2000/svg">
<rect width="49" height="21" rx="5" fill="#FF405E"/>
<path d="M7.32617 13.9414V5.60938C7.32617 5.57031 7.3457 5.55078 7.38477 5.55078H9.17188C9.20312 5.55078 9.22852 5.57031 9.24805 5.60938L12.5352 11.9258C12.5469 11.9531 12.5625 11.9707 12.582 11.9785C12.6016 11.9824 12.6172 11.9805 12.6289 11.9727C12.6445 11.9609 12.6523 11.9453 12.6523 11.9258V5.60938C12.6523 5.57031 12.6738 5.55078 12.7168 5.55078H14.0352C14.0742 5.55078 14.0938 5.57031 14.0938 5.60938V13.9414C14.0938 13.9805 14.0742 14 14.0352 14H12.248C12.209 14 12.1797 13.9805 12.1602 13.9414L8.88477 7.63086C8.87305 7.60352 8.85742 7.58789 8.83789 7.58398C8.81836 7.57617 8.80078 7.57812 8.78516 7.58984C8.77344 7.59766 8.76758 7.61133 8.76758 7.63086V13.9414C8.76758 13.9805 8.74805 14 8.70898 14H7.37305C7.3418 14 7.32617 13.9805 7.32617 13.9414ZM15.8105 13.9414V5.60938C15.8105 5.57031 15.8301 5.55078 15.8691 5.55078H21.7344C21.7773 5.55078 21.7988 5.57031 21.7988 5.60938V6.81055C21.7988 6.84961 21.7773 6.86914 21.7344 6.86914H17.3105C17.2676 6.86914 17.2461 6.89062 17.2461 6.93359V8.99609C17.2461 9.03516 17.2676 9.05469 17.3105 9.05469H21.1367C21.1758 9.05469 21.1953 9.07422 21.1953 9.11328V10.3145C21.1953 10.3574 21.1758 10.3789 21.1367 10.3789H17.3105C17.2676 10.3789 17.2461 10.3984 17.2461 10.4375V12.6172C17.2461 12.6602 17.2676 12.6816 17.3105 12.6816H21.7344C21.7773 12.6816 21.7988 12.7012 21.7988 12.7402V13.9414C21.7988 13.9805 21.7773 14 21.7344 14H15.8691C15.8301 14 15.8105 13.9805 15.8105 13.9414ZM23.1523 5.63867C23.1445 5.61914 23.1465 5.59961 23.1582 5.58008C23.1699 5.56055 23.1875 5.55078 23.2109 5.55078H24.6758C24.7148 5.55078 24.7383 5.57031 24.7461 5.60938L25.9824 12.5234C25.9902 12.5586 26.0098 12.5762 26.041 12.5762C26.0723 12.5723 26.0918 12.5547 26.0996 12.5234L27.4941 5.60938C27.5059 5.57031 27.5293 5.55078 27.5645 5.55078H29.8848C29.9199 5.55078 29.9434 5.57031 29.9551 5.60938L31.3555 12.5234C31.3633 12.5586 31.3848 12.5762 31.4199 12.5762C31.4551 12.5762 31.4746 12.5586 31.4785 12.5234L32.7031 5.60938C32.7109 5.57031 32.7344 5.55078 32.7734 5.55078H34.2383C34.2617 5.55078 34.2793 5.56055 34.291 5.58008C34.3027 5.59961 34.3047 5.61914 34.2969 5.63867L32.6445 13.9414C32.6328 13.9805 32.6074 14 32.5684 14H30.2656C30.2266 14 30.2031 13.9805 30.1953 13.9414L28.7891 7.01562C28.7812 6.98047 28.7598 6.96289 28.7246 6.96289C28.6895 6.96289 28.668 6.98047 28.6602 7.01562L27.2539 13.9414C27.2422 13.9805 27.2227 14 27.1953 14H24.8809C24.8379 14 24.8125 13.9805 24.8047 13.9414L23.1523 5.63867ZM35.2402 11.6855C35.2402 11.6426 35.2617 11.6211 35.3047 11.6211H36.6816C36.7207 11.6211 36.7402 11.6426 36.7402 11.6855C36.7402 11.9785 36.9141 12.2383 37.2617 12.4648C37.6094 12.6875 38.0332 12.7988 38.5332 12.7988C39.0293 12.7988 39.4434 12.6758 39.7754 12.4297C40.1074 12.1836 40.2734 11.8828 40.2734 11.5273C40.2734 11.2383 40.1289 10.9883 39.8398 10.7773C39.5508 10.5625 39.1152 10.4297 38.5332 10.3789C38.123 10.3398 37.7578 10.2871 37.4375 10.2207C37.1211 10.1504 36.8242 10.0527 36.5469 9.92773C36.2734 9.80273 36.0469 9.65234 35.8672 9.47656C35.6914 9.29688 35.5527 9.07812 35.4512 8.82031C35.3535 8.55859 35.3047 8.26172 35.3047 7.92969C35.3047 7.42188 35.4512 6.97461 35.7441 6.58789C36.0371 6.20117 36.4062 5.91211 36.8516 5.7207C37.3008 5.5293 37.7812 5.43359 38.293 5.43359C38.6953 5.43359 39.0781 5.48828 39.4414 5.59766C39.8086 5.70703 40.1348 5.86328 40.4199 6.06641C40.7051 6.26562 40.9316 6.52148 41.0996 6.83398C41.2676 7.14258 41.3516 7.48633 41.3516 7.86523C41.3516 7.9082 41.3359 7.92969 41.3047 7.92969H39.9102C39.8711 7.92969 39.8516 7.90039 39.8516 7.8418C39.8516 7.56836 39.7109 7.32031 39.4297 7.09766C39.1406 6.86719 38.7617 6.75195 38.293 6.75195C37.8867 6.75195 37.5371 6.86719 37.2441 7.09766C36.9512 7.32812 36.8047 7.60547 36.8047 7.92969C36.8047 8.07031 36.8398 8.19727 36.9102 8.31055C36.9805 8.41992 37.0664 8.50781 37.168 8.57422C37.2734 8.64062 37.4082 8.70117 37.5723 8.75586C37.7363 8.80664 37.8887 8.84375 38.0293 8.86719C38.1738 8.89062 38.3418 8.91406 38.5332 8.9375C38.7168 8.95703 38.8652 8.97461 38.9785 8.99023C39.0957 9.00586 39.252 9.0332 39.4473 9.07227C39.6426 9.10742 39.8047 9.14648 39.9336 9.18945C40.0664 9.22852 40.2207 9.28516 40.3965 9.35938C40.5762 9.42969 40.7246 9.50781 40.8418 9.59375C40.959 9.67969 41.0801 9.78711 41.2051 9.91602C41.334 10.0449 41.4355 10.1855 41.5098 10.3379C41.5879 10.4863 41.6504 10.6621 41.6973 10.8652C41.748 11.0684 41.7734 11.2891 41.7734 11.5273C41.7734 12.3203 41.4824 12.9512 40.9004 13.4199C40.3223 13.8848 39.5332 14.1172 38.5332 14.1172C38.0723 14.1172 37.6523 14.0684 37.2734 13.9707C36.8984 13.873 36.5859 13.7461 36.3359 13.5898C36.0898 13.4297 35.8828 13.2441 35.7148 13.0332C35.5469 12.8184 35.4258 12.5996 35.3516 12.377C35.2773 12.1504 35.2402 11.9199 35.2402 11.6855Z" fill="#FFF8F8"/>
</svg>
