<svg width="191" height="69" viewBox="0 0 191 69" fill="none" xmlns="http://www.w3.org/2000/svg">
<path d="M28.0502 67.9316V58.2109C28.0502 58.1654 28.073 58.1426 28.1186 58.1426H31.7143C32.6758 58.1471 33.4916 58.3659 34.1615 58.7988C34.8314 59.2318 35.3259 59.8197 35.6449 60.5625C35.9639 61.3053 36.1234 62.1735 36.1234 63.167C36.1234 64.6846 35.7497 65.8695 35.0023 66.7217C34.2549 67.5739 33.1589 68 31.7143 68H28.1186C28.073 68 28.0502 67.9772 28.0502 67.9316ZM29.7318 66.3867C29.7318 66.4368 29.7546 66.4619 29.8002 66.4619H31.7143C32.5574 66.4619 33.2113 66.1771 33.6762 65.6074C34.141 65.0378 34.3734 64.2243 34.3734 63.167C34.3734 62.1006 34.1387 61.2529 33.6693 60.624C33.1999 59.9951 32.5482 59.6807 31.7143 59.6807H29.7865C29.7501 59.6807 29.7318 59.7012 29.7318 59.7422V66.3867ZM39.5674 65.7031C39.2438 64.9512 39.082 64.0739 39.082 63.0713C39.082 62.0687 39.2438 61.1914 39.5674 60.4395C39.891 59.6875 40.39 59.0951 41.0645 58.6621C41.7389 58.2246 42.557 58.0059 43.5186 58.0059C44.4801 58.0059 45.2982 58.2246 45.9727 58.6621C46.6471 59.0951 47.1462 59.6875 47.4697 60.4395C47.7933 61.1914 47.9551 62.0687 47.9551 63.0713C47.9551 64.0739 47.7933 64.9512 47.4697 65.7031C47.1462 66.4551 46.6471 67.0498 45.9727 67.4873C45.2982 67.9202 44.4801 68.1367 43.5186 68.1367C42.557 68.1367 41.7389 67.9202 41.0645 67.4873C40.39 67.0498 39.891 66.4551 39.5674 65.7031ZM41.5293 60.4736C41.0645 61.0934 40.832 61.9593 40.832 63.0713C40.832 64.1833 41.0645 65.0492 41.5293 65.6689C41.9941 66.2887 42.6572 66.5986 43.5186 66.5986C44.3799 66.5986 45.043 66.2887 45.5078 65.6689C45.9727 65.0492 46.2051 64.1833 46.2051 63.0713C46.2051 61.9593 45.9727 61.0934 45.5078 60.4736C45.043 59.8538 44.3799 59.5439 43.5186 59.5439C42.6572 59.5439 41.9941 59.8538 41.5293 60.4736ZM51.1871 65.1973C51.0048 64.5911 50.9137 63.9144 50.9137 63.167C50.9137 62.4196 51.0048 61.736 51.1871 61.1162C51.374 60.4919 51.6451 59.9473 52.0006 59.4824C52.3606 59.0176 52.8232 58.6553 53.3883 58.3955C53.9579 58.1357 54.6028 58.0059 55.3228 58.0059C55.7512 58.0059 56.1546 58.0537 56.5328 58.1494C56.9111 58.2406 57.2369 58.3636 57.5103 58.5186C57.7883 58.6735 58.0413 58.8535 58.2691 59.0586C58.497 59.2591 58.6838 59.4665 58.8297 59.6807C58.9755 59.8903 59.0986 60.1022 59.1988 60.3164C59.2991 60.5306 59.3697 60.7266 59.4107 60.9043C59.4563 61.0775 59.4791 61.2301 59.4791 61.3623C59.4791 61.4079 59.4563 61.4307 59.4107 61.4307H57.7975C57.7564 61.4307 57.7291 61.4079 57.7154 61.3623C57.3189 60.1592 56.5214 59.5576 55.3228 59.5576C54.4934 59.5576 53.8417 59.8903 53.3678 60.5557C52.8984 61.2165 52.6637 62.0869 52.6637 63.167C52.6637 64.2334 52.8961 65.0697 53.3609 65.6758C53.8303 66.2819 54.4843 66.585 55.3228 66.585C55.6601 66.585 55.9677 66.5326 56.2457 66.4277C56.5282 66.3184 56.7493 66.1953 56.9088 66.0586C57.0728 65.9219 57.2187 65.7555 57.3463 65.5596C57.4784 65.3636 57.565 65.2132 57.606 65.1084C57.6516 65.0036 57.6926 64.8942 57.7291 64.7803C57.7428 64.7347 57.7701 64.7119 57.8111 64.7119H59.4107C59.4563 64.7119 59.4791 64.7347 59.4791 64.7803C59.4791 64.8851 59.4609 65.015 59.4244 65.1699C59.3879 65.3249 59.3219 65.5094 59.2262 65.7236C59.135 65.9378 59.0211 66.1543 58.8844 66.373C58.7477 66.5872 58.5676 66.8014 58.3443 67.0156C58.121 67.2298 57.8704 67.4189 57.5924 67.583C57.3189 67.7471 56.984 67.8815 56.5875 67.9863C56.1956 68.0866 55.774 68.1367 55.3228 68.1367C54.5982 68.1367 53.9534 68.0182 53.3883 67.7812C52.8277 67.5397 52.3674 67.2002 52.0074 66.7627C51.6474 66.3252 51.374 65.8034 51.1871 65.1973ZM62.2941 64.582V58.2109C62.2941 58.1654 62.3192 58.1426 62.3693 58.1426H63.9074C63.953 58.1426 63.9758 58.1654 63.9758 58.2109V64.582C63.9758 65.1016 64.1604 65.5459 64.5295 65.915C64.9032 66.2796 65.3498 66.4619 65.8693 66.4619C66.3889 66.4619 66.8332 66.2796 67.2023 65.915C67.5715 65.5459 67.7561 65.1016 67.7561 64.582V58.2109C67.7561 58.1654 67.7788 58.1426 67.8244 58.1426H69.3693C69.4149 58.1426 69.4377 58.1654 69.4377 58.2109V64.582C69.4377 65.2292 69.2782 65.8262 68.9592 66.373C68.6447 66.9199 68.2141 67.3506 67.6672 67.665C67.1203 67.9795 66.521 68.1367 65.8693 68.1367C65.2222 68.1367 64.6229 67.9795 64.0715 67.665C63.5246 67.3506 63.0917 66.9199 62.7727 66.373C62.4536 65.8262 62.2941 65.2292 62.2941 64.582ZM72.8748 67.9316V58.2109C72.8748 58.1654 72.8976 58.1426 72.9432 58.1426H75.8553C75.9145 58.1426 75.9487 58.1654 75.9578 58.2109L77.8172 66.2637C77.8263 66.2956 77.84 66.3184 77.8582 66.332C77.8764 66.3411 77.8947 66.3411 77.9129 66.332C77.9311 66.3184 77.9448 66.2956 77.9539 66.2637L79.8201 58.2109C79.8338 58.1654 79.8611 58.1426 79.9021 58.1426H82.8279C82.8735 58.1426 82.8963 58.1654 82.8963 58.2109V67.9316C82.8963 67.9772 82.8735 68 82.8279 68H81.2898C81.2443 68 81.2215 67.9772 81.2215 67.9316V59.8516C81.2215 59.8288 81.2101 59.8128 81.1873 59.8037C81.1691 59.79 81.1486 59.7878 81.1258 59.7969C81.103 59.8014 81.087 59.8197 81.0779 59.8516L79.2459 67.959C79.2459 67.9863 79.2231 68 79.1775 68H76.5867C76.5411 68 76.5184 67.9863 76.5184 67.959L74.6932 59.8516C74.684 59.8197 74.6681 59.8014 74.6453 59.7969C74.6225 59.7878 74.602 59.79 74.5838 59.8037C74.5656 59.8128 74.5564 59.8288 74.5564 59.8516V67.9316C74.5564 67.9772 74.5337 68 74.4881 68H72.9432C72.8976 68 72.8748 67.9772 72.8748 67.9316ZM86.3061 67.9316V58.2109C86.3061 58.1654 86.3288 58.1426 86.3744 58.1426H93.2172C93.2673 58.1426 93.2924 58.1654 93.2924 58.2109V59.6123C93.2924 59.6579 93.2673 59.6807 93.2172 59.6807H88.0561C88.0059 59.6807 87.9809 59.7057 87.9809 59.7559V62.1621C87.9809 62.2077 88.0059 62.2305 88.0561 62.2305H92.5199C92.5655 62.2305 92.5883 62.2533 92.5883 62.2988V63.7002C92.5883 63.7503 92.5655 63.7754 92.5199 63.7754H88.0561C88.0059 63.7754 87.9809 63.7982 87.9809 63.8438V66.3867C87.9809 66.4368 88.0059 66.4619 88.0561 66.4619H93.2172C93.2673 66.4619 93.2924 66.4847 93.2924 66.5303V67.9316C93.2924 67.9772 93.2673 68 93.2172 68H86.3744C86.3288 68 86.3061 67.9772 86.3061 67.9316ZM96.6885 67.9316V58.2109C96.6885 58.1654 96.7113 58.1426 96.7568 58.1426H98.8418C98.8783 58.1426 98.9079 58.1654 98.9307 58.2109L102.766 65.5801C102.779 65.612 102.798 65.6325 102.82 65.6416C102.843 65.6462 102.861 65.6439 102.875 65.6348C102.893 65.6211 102.902 65.6029 102.902 65.5801V58.2109C102.902 58.1654 102.927 58.1426 102.978 58.1426H104.516C104.561 58.1426 104.584 58.1654 104.584 58.2109V67.9316C104.584 67.9772 104.561 68 104.516 68H102.431C102.385 68 102.351 67.9772 102.328 67.9316L98.5068 60.5693C98.4932 60.5374 98.4749 60.5192 98.4521 60.5146C98.4294 60.5055 98.4089 60.5078 98.3906 60.5215C98.377 60.5306 98.3701 60.5465 98.3701 60.5693V67.9316C98.3701 67.9772 98.3473 68 98.3018 68H96.7432C96.7067 68 96.6885 67.9772 96.6885 67.9316ZM107.413 59.6123V58.2109C107.413 58.1654 107.435 58.1426 107.481 58.1426H114.481C114.527 58.1426 114.549 58.1654 114.549 58.2109V59.6123C114.549 59.6579 114.527 59.6807 114.481 59.6807H111.89C111.845 59.6807 111.822 59.7057 111.822 59.7559V67.9316C111.822 67.9772 111.799 68 111.754 68H110.209C110.163 68 110.14 67.9772 110.14 67.9316V59.7559C110.14 59.7057 110.117 59.6807 110.072 59.6807H107.481C107.435 59.6807 107.413 59.6579 107.413 59.6123ZM116.257 67.9043L119.361 58.2109C119.374 58.1654 119.404 58.1426 119.449 58.1426H121.965C122.011 58.1426 122.04 58.1654 122.054 58.2109L125.144 67.9043C125.153 67.9271 125.151 67.9499 125.137 67.9727C125.123 67.9909 125.103 68 125.075 68H123.462C123.421 68 123.394 67.9772 123.38 67.9316L122.915 66.4619L122.779 66.0381C122.765 65.9925 122.733 65.9697 122.683 65.9697H118.718C118.668 65.9697 118.636 65.9925 118.622 66.0381L118.533 66.3047L118.021 67.9316C118.012 67.9772 117.982 68 117.932 68H116.325C116.298 68 116.278 67.9909 116.264 67.9727C116.25 67.9499 116.248 67.9271 116.257 67.9043ZM119.155 64.3633C119.142 64.4089 119.16 64.4316 119.21 64.4316H122.204C122.245 64.4316 122.259 64.4089 122.245 64.3633L120.776 59.7422C120.762 59.7057 120.739 59.6875 120.707 59.6875C120.675 59.6875 120.653 59.7057 120.639 59.7422L119.155 64.3633ZM126.633 59.6123V58.2109C126.633 58.1654 126.655 58.1426 126.701 58.1426H133.701C133.747 58.1426 133.769 58.1654 133.769 58.2109V59.6123C133.769 59.6579 133.747 59.6807 133.701 59.6807H131.11C131.065 59.6807 131.042 59.7057 131.042 59.7559V67.9316C131.042 67.9772 131.019 68 130.973 68H129.429C129.383 68 129.36 67.9772 129.36 67.9316V59.7559C129.36 59.7057 129.337 59.6807 129.292 59.6807H126.701C126.655 59.6807 126.633 59.6579 126.633 59.6123ZM136.591 67.9316V58.2109C136.591 58.1654 136.614 58.1426 136.66 58.1426H138.198C138.243 58.1426 138.266 58.1654 138.266 58.2109V67.9316C138.266 67.9772 138.243 68 138.198 68H136.66C136.614 68 136.591 67.9772 136.591 67.9316ZM141.915 65.7031C141.591 64.9512 141.43 64.0739 141.43 63.0713C141.43 62.0687 141.591 61.1914 141.915 60.4395C142.239 59.6875 142.738 59.0951 143.412 58.6621C144.087 58.2246 144.905 58.0059 145.866 58.0059C146.828 58.0059 147.646 58.2246 148.32 58.6621C148.995 59.0951 149.494 59.6875 149.817 60.4395C150.141 61.1914 150.303 62.0687 150.303 63.0713C150.303 64.0739 150.141 64.9512 149.817 65.7031C149.494 66.4551 148.995 67.0498 148.32 67.4873C147.646 67.9202 146.828 68.1367 145.866 68.1367C144.905 68.1367 144.087 67.9202 143.412 67.4873C142.738 67.0498 142.239 66.4551 141.915 65.7031ZM143.877 60.4736C143.412 61.0934 143.18 61.9593 143.18 63.0713C143.18 64.1833 143.412 65.0492 143.877 65.6689C144.342 66.2887 145.005 66.5986 145.866 66.5986C146.728 66.5986 147.391 66.2887 147.855 65.6689C148.32 65.0492 148.553 64.1833 148.553 63.0713C148.553 61.9593 148.32 61.0934 147.855 60.4736C147.391 59.8538 146.728 59.5439 145.866 59.5439C145.005 59.5439 144.342 59.8538 143.877 60.4736ZM153.624 67.9316V58.2109C153.624 58.1654 153.646 58.1426 153.692 58.1426H155.777C155.813 58.1426 155.843 58.1654 155.866 58.2109L159.701 65.5801C159.714 65.612 159.733 65.6325 159.755 65.6416C159.778 65.6462 159.796 65.6439 159.81 65.6348C159.828 65.6211 159.837 65.6029 159.837 65.5801V58.2109C159.837 58.1654 159.863 58.1426 159.913 58.1426H161.451C161.496 58.1426 161.519 58.1654 161.519 58.2109V67.9316C161.519 67.9772 161.496 68 161.451 68H159.366C159.32 68 159.286 67.9772 159.263 67.9316L155.442 60.5693C155.428 60.5374 155.41 60.5192 155.387 60.5146C155.365 60.5055 155.344 60.5078 155.326 60.5215C155.312 60.5306 155.305 60.5465 155.305 60.5693V67.9316C155.305 67.9772 155.282 68 155.237 68H153.678C153.642 68 153.624 67.9772 153.624 67.9316Z" fill="#FFF8F8"/>
<g clip-path="url(#clip0)">
<path d="M52.4318 44.8883V31.2409C52.4318 28.0195 51.184 26.1845 48.464 26.1845C45.6565 26.1845 44.3191 27.8402 44.3191 30.9277V44.8883H36.9201V11.7761H44.3191V22.426C45.3883 20.4127 47.7955 19.2045 50.7383 19.2045C56.3987 19.2045 59.8308 22.7839 59.8308 29.272V44.8883H52.4318Z" fill="#FFB0C2"/>
<path d="M80.8644 23.6725C80.8644 21.2055 78.8722 19.2056 76.4144 19.2056C73.9572 19.2056 71.9646 21.2055 71.9646 23.6725C71.9646 26.1394 73.9572 28.1396 76.4144 28.1396C78.8722 28.1396 80.8644 26.1394 80.8644 23.6725Z" fill="#FFB0C2"/>
<path d="M63.7986 20.0277H70.7521V44.8612H63.7986V20.0277Z" fill="#FFB0C2"/>
<path d="M141.281 44.8729V31.4943C141.281 27.6009 140.033 26.1691 137.491 26.1691C134.684 26.1691 133.391 27.8701 133.391 31.1358V44.8729H125.992V31.1811C125.992 27.9587 124.833 26.1691 122.292 26.1691C119.395 26.1691 118.102 28.0484 118.102 31.4943V44.8729H110.702V20.0394H117.612V22.6788H117.701C118.994 20.352 121.356 19.1891 124.52 19.1891C127.73 19.1891 130.093 20.7995 131.653 23.6187C133.436 20.7995 136.11 19.1891 139.498 19.1891C145.025 19.1891 148.68 22.5898 148.68 29.5254V44.8729H141.281Z" fill="#FFF7F7"/>
<path d="M160.061 20.0277H152.662V44.8612H160.061V20.0277Z" fill="#FFF7F7"/>
<path d="M182.752 44.8729V42.1885H182.663C181.593 44.3813 178.651 45.7235 175.398 45.7235C168.087 45.7235 163.006 39.9508 163.006 32.4337C163.006 25.0952 168.31 19.1891 175.398 19.1891C178.428 19.1891 181.237 20.3973 182.663 22.6788H182.752V20.0394H190.151V44.8729H182.752ZM182.752 32.4337C182.752 28.9433 179.944 26.1247 176.467 26.1247C173.08 26.1247 170.405 28.9433 170.405 32.5233C170.405 35.9683 173.124 38.7879 176.557 38.7879C180.033 38.7879 182.752 36.0136 182.752 32.4337Z" fill="#FFF7F7"/>
<path d="M160.812 13.8834C160.812 11.4165 158.82 9.41657 156.362 9.41657C153.905 9.41657 151.912 11.4165 151.912 13.8834C151.912 16.3504 153.905 18.3503 156.362 18.3503C158.82 18.3503 160.812 16.3504 160.812 13.8834Z" fill="#FFF7F7"/>
<path d="M94.6178 19.2827C87.3553 19.2827 81.4684 25.1925 81.4684 32.4829C81.4684 39.7731 87.3553 45.6832 94.6178 45.6832C101.88 45.6832 107.767 39.7731 107.767 32.4829C107.767 25.1925 101.88 19.2827 94.6178 19.2827ZM94.6178 38.7472C91.1711 38.7472 88.3772 35.9426 88.3772 32.4829C88.3772 29.023 91.1711 26.2184 94.6178 26.2184C98.0641 26.2184 100.858 29.023 100.858 32.4829C100.858 35.9426 98.0641 38.7472 94.6178 38.7472Z" fill="#FFB0C2"/>
<path d="M24.6855 32.3319C23.2397 35.072 20.3745 36.941 17.0702 36.941C12.3128 36.941 8.45617 33.0693 8.45617 28.2933C8.45617 23.5172 12.3128 19.6455 17.0702 19.6455C20.3745 19.6455 23.2397 21.5145 24.6855 24.2547H33.6529C31.8538 16.7261 25.1223 11.1233 17.0702 11.1233C7.64247 11.1233 0 18.7958 0 28.2598C0 37.7241 7.64247 45.3959 17.0702 45.3959C25.0979 45.3959 31.8127 39.8263 33.6359 32.3319H24.6855Z" fill="#FFB0C2"/>
<path d="M30.5662 17.8099C32.4914 16.2333 33.721 13.8327 33.721 11.144C33.721 6.39526 29.8863 2.54584 25.156 2.54584C20.4255 2.54584 16.5908 6.39526 16.5908 11.144V11.1505C16.7499 11.1462 16.909 11.1437 17.069 11.1437C22.567 11.1437 27.4492 13.7561 30.5662 17.8099Z" fill="#CC91F0"/>
<path d="M25.1618 19.7517C27.2139 19.7514 29.0975 19.0272 30.5724 17.8191C27.456 13.7656 22.5738 11.1536 17.0756 11.1544C16.9156 11.1542 16.7565 11.1566 16.5979 11.161C16.6006 15.9067 20.4337 19.7522 25.1618 19.7517Z" fill="#CC66B8"/>
</g>
<defs>
<clipPath id="clip0">
<rect width="190.152" height="48.2692" fill="white"/>
</clipPath>
</defs>
</svg>
